<svg xmlns="http://www.w3.org/2000/svg" viewBox="0 0 48 48">
  <path d="M24 10c4.8 0 8.6 3.8 8.6 8.6 0 3.2-1.7 6-4.3 7.5l1 3.3H19.7l1-3.3c-2.6-1.5-4.3-4.3-4.3-7.5C16.4 13.8 19.2 10 24 10Z" fill="#4b5563" stroke="#111827" stroke-width="1.2"/>
  <path d="M26.8 15.3 21.2 20.9" fill="none" stroke="#111827" stroke-width="2" stroke-linecap="round" opacity=".6"/>
  <path d="M18 29.4h12c1.6 2.1 2.5 4.2 2.5 6.5 0 1.2-.2 2.2-.5 3.1H16c-.3-.9-.5-1.9-.5-3.1 0-2.3.9-4.4 2.5-6.5Z" fill="#4b5563" stroke="#111827" stroke-width="1.2"/>
  <path d="M14 40h20c2.5 0 4-1.4 4-3.2 0-1.3-.7-2.5-1.8-3.3l-2.4-1.7H14l-2.4 1.7A4.1 4.1 0 0 0 9.8 36.8C9.8 38.6 11.5 40 14 40Z" fill="#4b5563" stroke="#111827" stroke-width="1.2"/>
  <path d="M16 31.8h16l-1.4-4.2H17.4L16 31.8Z" fill="#0f172a" opacity=".22"/>
</svg>
