<svg xmlns="http://www.w3.org/2000/svg" viewBox="0 0 48 48">
  <path d="M22.2 10h3.6v5.4H31v3.6h-5.2V24h-3.6v-5H17v-3.6h5.2V10Z" fill="#f8fafc" stroke="#111827" stroke-width="1.2"/>
  <path d="M18.2 24.8h11.6c2.3 2.7 3.8 5.7 3.8 9 0 2-.5 3.8-1.1 5.2H15.5c-.6-1.4-1.1-3.2-1.1-5.2 0-3.3 1.5-6.3 3.8-9Z" fill="#f8fafc" stroke="#111827" stroke-width="1.2"/>
  <path d="M14 40h20c2.5 0 4-1.4 4-3.2 0-1.3-.7-2.5-1.8-3.3l-2.4-1.7H14l-2.4 1.7A4.1 4.1 0 0 0 9.8 36.8C9.8 38.6 11.5 40 14 40Z" fill="#f8fafc" stroke="#111827" stroke-width="1.2"/>
  <path d="M16 31.8h16l-1.4-4.2H17.4L16 31.8Z" fill="#e2e8f0" opacity=".22"/>
</svg>
