<svg xmlns="http://www.w3.org/2000/svg" viewBox="0 0 48 48">
  <path d="M31.8 38.8H16.3c-.9-1.2-1.3-2.7-1.3-4.4 0-4.7 2.7-8.3 6-10.9l-1.7-2.6c-1.4-2.1-.9-4.8 1.1-6.3 1.8-1.3 4.3-1.1 5.9.5l2.8 2.8c2.6 2.6 4.1 5.7 4.1 9.1 0 1.8-.5 3.6-1.4 5.2l1 2.4c.6 1.4.3 3.1-.9 4.2Z" fill="#f8fafc" stroke="#111827" stroke-width="1.2"/>
  <path d="M20.6 17.9c2.2-.4 4.1 0 5.6 1.5" fill="none" stroke="#111827" stroke-width="1.2" opacity=".35"/>
  <circle cx="27.2" cy="22.7" r="1.5" fill="#111827" opacity=".35"/>
  <path d="M18 29.6h12c1.8 2.1 2.8 4.4 2.8 6.9 0 .9-.1 1.7-.3 2.3H15.5c-.2-.6-.3-1.4-.3-2.3 0-2.5 1-4.8 2.8-6.9Z" fill="#f8fafc" stroke="#111827" stroke-width="1.2"/>
  <path d="M14 40h20c2.5 0 4-1.4 4-3.2 0-1.3-.7-2.5-1.8-3.3l-2.4-1.7H14l-2.4 1.7A4.1 4.1 0 0 0 9.8 36.8C9.8 38.6 11.5 40 14 40Z" fill="#f8fafc" stroke="#111827" stroke-width="1.2"/>
  <path d="M16 31.8h16l-1.4-4.2H17.4L16 31.8Z" fill="#e2e8f0" opacity=".22"/>
</svg>
