<svg xmlns="http://www.w3.org/2000/svg" viewBox="0 0 48 48">
  <path d="M14 19.5 18 13l6 6 6-6 4 6.5-3 2.3L32.2 27H15.8L17 21.8l-3-2.3Z" fill="#f8fafc" stroke="#111827" stroke-width="1.2"/>
  <circle cx="18" cy="12" r="2.1" fill="#f8fafc" stroke="#111827" stroke-width="1.1"/>
  <circle cx="24" cy="11" r="2.1" fill="#f8fafc" stroke="#111827" stroke-width="1.1"/>
  <circle cx="30" cy="12" r="2.1" fill="#f8fafc" stroke="#111827" stroke-width="1.1"/>
  <path d="M18.2 27h11.6c1.8 2.1 2.9 4.5 2.9 7.1 0 2.2-.7 4.1-1.6 5.7H16.9c-.9-1.6-1.6-3.5-1.6-5.7 0-2.6 1.1-5 2.9-7.1Z" fill="#f8fafc" stroke="#111827" stroke-width="1.2"/>
  <path d="M14 40h20c2.5 0 4-1.4 4-3.2 0-1.3-.7-2.5-1.8-3.3l-2.4-1.7H14l-2.4 1.7A4.1 4.1 0 0 0 9.8 36.8C9.8 38.6 11.5 40 14 40Z" fill="#f8fafc" stroke="#111827" stroke-width="1.2"/>
  <path d="M16 31.8h16l-1.4-4.2H17.4L16 31.8Z" fill="#e2e8f0" opacity=".22"/>
</svg>
